<?xml version="1.0" encoding="UTF-8"?>
<svg xmlns="http://www.w3.org/2000/svg"
  xmlns:xlink="http://www.w3.org/1999/xlink" width="0" height="0">
  <symbol id="alert-circle" viewBox="0 0 24 24">
    <path d="M13,13H11V7H13M13,17H11V15H13M12,2A10,10 0 0,0 2,12A10,10 0 0,0 12,22A10,10 0 0,0 22,12A10,10 0 0,0 12,2Z" />
  </symbol>
  <symbol id="check-circle-outline" viewBox="0 0 24 24">
    <path d="M12 2C6.5 2 2 6.5 2 12S6.5 22 12 22 22 17.5 22 12 17.5 2 12 2M12 20C7.59 20 4 16.41 4 12S7.59 4 12 4 20 7.59 20 12 16.41 20 12 20M16.59 7.58L10 14.17L7.41 11.59L6 13L10 17L18 9L16.59 7.58Z" />
  </symbol>
  <symbol id="check" viewBox="0 0 15 15" fill="none">
    <path fill-rule="evenodd" clip-rule="evenodd" d="M11.4669 3.72684C11.7558 3.91574 11.8369 4.30308 11.648 4.59198L7.39799 11.092C7.29783 11.2452 7.13556 11.3467 6.95402 11.3699C6.77247 11.3931 6.58989 11.3355 6.45446 11.2124L3.70446 8.71241C3.44905 8.48022 3.43023 8.08494 3.66242 7.82953C3.89461 7.57412 4.28989 7.55529 4.5453 7.78749L6.75292 9.79441L10.6018 3.90792C10.7907 3.61902 11.178 3.53795 11.4669 3.72684Z" fill="currentColor" />
  </symbol>

  <symbol id="eye-none" viewBox="0 0 15 15" fill="none">
    <path fill-rule="evenodd" clip-rule="evenodd" d="M13.3536 2.35355C13.5488 2.15829 13.5488 1.84171 13.3536 1.64645C13.1583 1.45118 12.8417 1.45118 12.6464 1.64645L10.6828 3.61012C9.70652 3.21671 8.63759 3 7.5 3C4.30786 3 1.65639 4.70638 0.0760002 7.23501C-0.0253338 7.39715 -0.0253334 7.60288 0.0760014 7.76501C0.902945 9.08812 2.02314 10.1861 3.36061 10.9323L1.64645 12.6464C1.45118 12.8417 1.45118 13.1583 1.64645 13.3536C1.84171 13.5488 2.15829 13.5488 2.35355 13.3536L4.31723 11.3899C5.29348 11.7833 6.36241 12 7.5 12C10.6921 12 13.3436 10.2936 14.924 7.76501C15.0253 7.60288 15.0253 7.39715 14.924 7.23501C14.0971 5.9119 12.9769 4.81391 11.6394 4.06771L13.3536 2.35355ZM9.90428 4.38861C9.15332 4.1361 8.34759 4 7.5 4C4.80285 4 2.52952 5.37816 1.09622 7.50001C1.87284 8.6497 2.89609 9.58106 4.09974 10.1931L9.90428 4.38861ZM5.09572 10.6114L10.9003 4.80685C12.1039 5.41894 13.1272 6.35031 13.9038 7.50001C12.4705 9.62183 10.1971 11 7.5 11C6.65241 11 5.84668 10.8639 5.09572 10.6114Z" fill="currentColor" />
  </symbol>

  <symbol id="eye-open" viewBox="0 0 15 15" fill="none">
    <path fill-rule="evenodd" clip-rule="evenodd" d="M7.5 11C4.80285 11 2.52952 9.62184 1.09622 7.50001C2.52952 5.37816 4.80285 4 7.5 4C10.1971 4 12.4705 5.37816 13.9038 7.50001C12.4705 9.62183 10.1971 11 7.5 11ZM7.5 3C4.30786 3 1.65639 4.70638 0.0760002 7.23501C-0.0253338 7.39715 -0.0253334 7.60288 0.0760014 7.76501C1.65639 10.2936 4.30786 12 7.5 12C10.6921 12 13.3436 10.2936 14.924 7.76501C15.0253 7.60288 15.0253 7.39715 14.924 7.23501C13.3436 4.70638 10.6921 3 7.5 3ZM7.5 9.5C8.60457 9.5 9.5 8.60457 9.5 7.5C9.5 6.39543 8.60457 5.5 7.5 5.5C6.39543 5.5 5.5 6.39543 5.5 7.5C5.5 8.60457 6.39543 9.5 7.5 9.5Z" fill="currentColor" />
  </symbol>

  <symbol id="spinner" viewBox="0 0 24 24">
    <circle className="opacity-10" cx="12" cy="12" r="10" stroke="currentColor" strokeWidth="4"></circle>
    <path className="opacity-75" fill="currentColor" d="M4 12a8 8 0 018-8V0C5.373 0 0 5.373 0 12h4zm2 5.291A7.962 7.962 0 014 12H0c0 3.042 1.135 5.824 3 7.938l3-2.647z"></path>
  </symbol>
  <symbol id="timer-sand-empty" viewBox="0 0 24 24">
    <path d="M6,2V8H6V8L10,12L6,16V16H6V22H18V16H18V16L14,12L18,8V8H18V2H6M16,16.5V20H8V16.5L12,12.5L16,16.5M12,11.5L8,7.5V4H16V7.5L12,11.5Z" />
  </symbol>
  <symbol id="web_light_sq_na" viewBox="0 0 40 40" fill="none">
    <rect x="0.5" y="0.5" rx="3.5" fill="currentColor"/>
    <g clip-path="url(#clip0_710_6223)">
      <path d="M29.6 20.2273C29.6 19.5182 29.5364 18.8364 29.4182 18.1818H20V22.05H25.3818C25.15 23.3 24.4455 24.3591 23.3864 25.0682V27.5773H26.6182C28.5091 25.8364 29.6 23.2727 29.6 20.2273Z" fill="#4285F4"/>
      <path d="M20 30C22.7 30 24.9636 29.1045 26.6181 27.5773L23.3863 25.0682C22.4909 25.6682 21.3454 26.0227 20 26.0227C17.3954 26.0227 15.1909 24.2636 14.4045 21.9H11.0636V24.4909C12.7091 27.7591 16.0909 30 20 30Z" fill="#34A853"/>
      <path d="M14.4045 21.9C14.2045 21.3 14.0909 20.6591 14.0909 20C14.0909 19.3409 14.2045 18.7 14.4045 18.1V15.5091H11.0636C10.3864 16.8591 10 18.3864 10 20C10 21.6136 10.3864 23.1409 11.0636 24.4909L14.4045 21.9Z" fill="#FBBC04"/>
      <path d="M20 13.9773C21.4681 13.9773 22.7863 14.4818 23.8227 15.4727L26.6909 12.6045C24.9591 10.9909 22.6954 10 20 10C16.0909 10 12.7091 12.2409 11.0636 15.5091L14.4045 18.1C15.1909 15.7364 17.3954 13.9773 20 13.9773Z" fill="#E94235"/>
    </g>
    <rect x="0.5" y="0.5" rx="3.5" stroke="currentColor"/>
    <defs>
      <clipPath>
        <rect fill="currentColor" transform="translate(10 10)"/>
      </clipPath>
    </defs>
  </symbol>

</svg>
