<?xml version="1.0" encoding="UTF-8"?>
<svg xmlns="http://www.w3.org/2000/svg"
  xmlns:xlink="http://www.w3.org/1999/xlink" width="0" height="0">
  <symbol id="alert-circle" viewBox="0 0 24 24">
    <path d="M13,13H11V7H13M13,17H11V15H13M12,2A10,10 0 0,0 2,12A10,10 0 0,0 12,22A10,10 0 0,0 22,12A10,10 0 0,0 12,2Z" />
  </symbol>
  <symbol id="check-circle-outline" viewBox="0 0 24 24">
    <path d="M12 2C6.5 2 2 6.5 2 12S6.5 22 12 22 22 17.5 22 12 17.5 2 12 2M12 20C7.59 20 4 16.41 4 12S7.59 4 12 4 20 7.59 20 12 16.41 20 12 20M16.59 7.58L10 14.17L7.41 11.59L6 13L10 17L18 9L16.59 7.58Z" />
  </symbol>
  <symbol id="check" viewBox="0 0 15 15" fill="none">
    <path fill-rule="evenodd" clip-rule="evenodd" d="M11.4669 3.72684C11.7558 3.91574 11.8369 4.30308 11.648 4.59198L7.39799 11.092C7.29783 11.2452 7.13556 11.3467 6.95402 11.3699C6.77247 11.3931 6.58989 11.3355 6.45446 11.2124L3.70446 8.71241C3.44905 8.48022 3.43023 8.08494 3.66242 7.82953C3.89461 7.57412 4.28989 7.55529 4.5453 7.78749L6.75292 9.79441L10.6018 3.90792C10.7907 3.61902 11.178 3.53795 11.4669 3.72684Z" fill="currentColor" />
  </symbol>

  <symbol id="cross-1" viewBox="0 0 15 15" fill="none">
    <path fill-rule="evenodd" clip-rule="evenodd" d="M12.8536 2.85355C13.0488 2.65829 13.0488 2.34171 12.8536 2.14645C12.6583 1.95118 12.3417 1.95118 12.1464 2.14645L7.5 6.79289L2.85355 2.14645C2.65829 1.95118 2.34171 1.95118 2.14645 2.14645C1.95118 2.34171 1.95118 2.65829 2.14645 2.85355L6.79289 7.5L2.14645 12.1464C1.95118 12.3417 1.95118 12.6583 2.14645 12.8536C2.34171 13.0488 2.65829 13.0488 2.85355 12.8536L7.5 8.20711L12.1464 12.8536C12.3417 13.0488 12.6583 13.0488 12.8536 12.8536C13.0488 12.6583 13.0488 12.3417 12.8536 12.1464L8.20711 7.5L12.8536 2.85355Z" fill="currentColor" />
  </symbol>

  <symbol id="default-avatar" viewBox="0 0 1080 1080" fill="none">
    <defs>
      <filter x="-20%" y="-20%" filterUnits="objectBoundingBox" primitiveUnits="userSpaceOnUse" color-interpolation-filters="linearRGB">
        <feMorphology operator="dilate" radius="20 20" in="SourceAlpha" result="morphology"/>
        <feFlood flood-color="#ffffff" flood-opacity="1" result="flood"/>
        <feComposite in="flood" in2="morphology" operator="in" result="composite"/>
        <feMerge result="merge">
          <feMergeNode in="composite" result="mergeNode"/>
          <feMergeNode in="SourceGraphic" result="mergeNode1"/>
        </feMerge>
      </filter>
    </defs>
    <g id="notion-avatar" filter="url(#filter)">
      <g id="notion-avatar-face" fill="currentColor">        <!--?xml encoding="UTF-8"?-->
        <title>Face/ 8</title>
        <g id="Face/-8" stroke="none" stroke-width="1" fill-rule="evenodd" stroke-linecap="round" stroke-linejoin="round">
          <path d="M532,379 C664.54834,379 772,486.45166 772,619 C772,751.54834 724.54834,899 592,899 C492.560218,899 373.476049,816.010833 320.189513,718.584987 C317.498129,718.859681 314.765451,719 312,719 C267.81722,719 232,683.18278 232,639 C232,599.134956 261.158843,566.080325 299.312086,560.00055 C325.599297,455.979213 419.809919,379 532,379 Z M295.858895,624.545187 L304.141105,655.454813" id="Path" stroke="currentColor" stroke-width="24"/>
        </g>
      </g>
      <g id="notion-avatar-nose">        <!--?xml version="1.0" encoding="UTF-8"?-->
        <title>Nose/ 4</title>
        <g id="Nose/-4" stroke="none" stroke-width="1" fill="none" fill-rule="evenodd" stroke-linecap="round" stroke-linejoin="round">
          <path d="M636.843426,596.000252 C661.659687,637.453214 673.277876,666.226337 671.697992,682.319621 C670.118108,698.412905 655.181344,703.444023 626.8877,697.412976" id="Line" stroke="currentColor" stroke-width="16" transform="translate(649.363766, 647.939652) rotate(1.032339) translate(-649.363766, -647.939652) "/>
        </g>
      </g>
      <g id="notion-avatar-mouth">        <!--?xml version="1.0" encoding="UTF-8"?-->
        <title>Mouth/ 1</title>
        <g id="Mouth/-1" stroke="none" stroke-width="1" fill="none" fill-rule="evenodd" stroke-linecap="round" stroke-linejoin="round">
          <path d="M549,759 C575.12979,773.666667 603.12979,781 633,781 C662.87021,781 682.87021,773.666667 693,759" id="Path" stroke="currentColor" stroke-width="16"/>
        </g>
      </g>
      <g id="notion-avatar-eyes">        <!--?xml version="1.0" encoding="UTF-8"?-->
        <title>Eyes/ 4</title>
        <g id="Eyes/-4" stroke="none" stroke-width="1" fill="none" fill-rule="evenodd">
          <path d="M570,516 C583.254834,516 594,526.745166 594,540 C594,553.254834 583.254834,564 570,564 C556.745166,564 546,553.254834 546,540 C546,526.745166 556.745166,516 570,516 Z M708,516 C721.254834,516 732,526.745166 732,540 C732,553.254834 721.254834,564 708,564 C694.745166,564 684,553.254834 684,540 C684,526.745166 694.745166,516 708,516 Z M562,526 C558.686292,526 556,528.686292 556,532 C556,535.313708 558.686292,538 562,538 C565.313708,538 568,535.313708 568,532 C568,528.686292 565.313708,526 562,526 Z M700,526 C696.686292,526 694,528.686292 694,532 C694,535.313708 696.686292,538 700,538 C703.313708,538 706,535.313708 706,532 C706,528.686292 703.313708,526 700,526 Z" id="Combined-Shape" fill="currentColor"/>
        </g>
      </g>
      <g id="notion-avatar-eyebrows">        <!--?xml version="1.0" encoding="UTF-8"?-->
        <title>Eyebrows/ 2</title>
        <g id="Eyebrows/-2" stroke="none" stroke-width="1" fill="none" fill-rule="evenodd" stroke-linecap="round" stroke-linejoin="round">
          <path d="M570,485.718496 C590.574398,488.795594 605.574398,494.964927 615,504.226493 C600,498.618009 585,495.813767 570,495.813767 C555,495.813767 536.666667,498.618009 515,504.226493 L525,490.766132 C534.425602,484.323943 549.425602,482.641398 570,485.718496 Z M708,485.718496 C728.574398,482.641398 743.574398,484.323943 753,490.766132 L753,490.766132 L763,504.226493 C741.333333,498.618009 723,495.813767 708,495.813767 C693,495.813767 678,498.618009 663,504.226493 C672.425602,494.964927 687.425602,488.795594 708,485.718496 Z" id="Combined-Shape" stroke="currentColor" stroke-width="16" fill="currentColor"/>
        </g>
      </g>
      <g id="notion-avatar-glasses">        <!--?xml version="1.0" encoding="UTF-8"?-->
        <title>Glasses/ 0</title>
        <g id="Glasses/-0" stroke="none" stroke-width="1" fill="none" fill-rule="evenodd"/>
      </g>
      <g id="notion-avatar-hair">
        <g id="Hairstyle/ 41">
          <g id="Shape">
            <path fill-rule="evenodd" clip-rule="evenodd" d="M470 216L472.761 217.998C517.441 250.401 541.685 271.171 545.494 280.307L545.616 280.617L545.655 280.243C546.573 271.112 547.022 263.698 547 258L546.99 257.06C546.902 251.639 546.239 242.953 545 231L546.194 231.952C563.921 246.181 573.523 258.197 575 268C578.538 291.485 571.321 312.617 565.186 320.757L565 321C563.362 323.111 583 304 588 281C591.333 265.667 591.333 253 588 243C618.892 252.971 635.892 266.971 639 285C642.265 303.939 642.332 322.238 639.2 339.897L639.002 340.988L639.143 340.303C643.934 317.434 657.22 306 679 306C701 306 723.667 315 747 333L745.544 333.641C730.175 340.441 719.994 345.894 715 350C709.85 354.234 705.517 360.901 702 370L704.929 369.684C717.819 368.257 726.751 366.726 731.728 365.091L732 365C747.61 359.704 766.035 369.638 765 370C745 377 738 401 745 410C749.667 416 762 420.333 782 423C751.125 449.791 728.791 458.458 715 449C694.313 434.813 694.135 417.865 674 416C649.26 413.709 659.554 449 616 449C578.396 449 543.495 432.453 507 425C467.629 416.96 428.054 417.523 418.544 416.09L418 416C410.393 414.603 393.492 432.444 379.296 445.522L380.068 448.707L381.032 452.731C388.587 484.482 392.365 505.818 392.365 516.739C392.365 528.233 383.924 572.725 367.044 650.214L366 655L328.117 564.825H287.146C272.111 508.976 268.27 470.345 275.621 448.931C264.765 438.546 255.225 418.901 247 390C263.285 398.391 280.426 401.82 298.421 400.286C289.571 388.812 286.281 369.929 288.55 343.639C295.565 351.119 303.402 357.588 312.062 363.045C326.325 325.452 360.22 304.953 375 285C388.333 267 390 249 380 231C436.667 239.667 470 249.333 480 260C481.333 246.667 478 232 470 216ZM545.616 280.617L545.57 281.078L545.331 283.35C545.29 283.735 545.248 284.122 545.205 284.512C546.092 283.711 546.261 282.502 545.713 280.885L545.616 280.617Z" fill="currentColor"/>
            <path d="M470 216L473.518 211.14C471.279 209.519 468.223 209.638 466.117 211.426C464.01 213.215 463.398 216.211 464.633 218.683L470 216ZM472.761 217.998L476.284 213.141L476.279 213.138L472.761 217.998ZM545.494 280.307L551.079 278.113C551.064 278.075 551.048 278.037 551.032 277.998L545.494 280.307ZM545.616 280.617L540.031 282.811C541.043 285.386 543.684 286.935 546.425 286.562C549.167 286.189 551.297 283.99 551.584 281.238L545.616 280.617ZM545.655 280.243L551.623 280.864C551.623 280.857 551.624 280.851 551.625 280.844L545.655 280.243ZM547 258L553 257.977C553 257.964 553 257.951 553 257.938L547 258ZM546.99 257.06L552.99 256.998C552.99 256.986 552.99 256.974 552.99 256.962L546.99 257.06ZM545 231L548.74 226.309C546.851 224.802 544.241 224.576 542.121 225.736C540 226.896 538.783 229.214 539.032 231.618L545 231ZM546.194 231.952L549.95 227.273C549.944 227.269 549.939 227.265 549.934 227.26L546.194 231.952ZM575 268L580.933 267.106L575 268ZM565.186 320.757L569.952 324.402C569.96 324.391 569.969 324.38 569.977 324.369L565.186 320.757ZM565 321L569.74 324.679C569.749 324.667 569.758 324.656 569.766 324.645L565 321ZM588 281L593.863 282.275L588 281ZM588 243L589.843 237.29C587.69 236.595 585.329 237.17 583.737 238.778C582.145 240.385 581.592 242.751 582.308 244.897L588 243ZM639 285L633.087 286.019L639 285ZM639.2 339.897L645.104 340.968C645.105 340.96 645.106 340.953 645.108 340.945L639.2 339.897ZM639.002 340.988L633.098 339.917C632.512 343.151 634.636 346.255 637.863 346.879C641.09 347.503 644.218 345.415 644.879 342.195L639.002 340.988ZM639.143 340.303L633.27 339.073C633.268 339.081 633.267 339.089 633.265 339.096L639.143 340.303ZM747 333L749.419 338.491C751.356 337.637 752.7 335.826 752.956 333.725C753.212 331.623 752.341 329.542 750.665 328.249L747 333ZM745.544 333.641L743.125 328.151L743.116 328.154L745.544 333.641ZM715 350L711.189 345.365L715 350ZM702 370L696.404 367.837C695.649 369.789 695.966 371.993 697.24 373.653C698.515 375.313 700.562 376.19 702.643 375.965L702 370ZM704.929 369.684L705.572 375.65C705.578 375.649 705.584 375.649 705.59 375.648L704.929 369.684ZM731.728 365.091L733.6 370.791C733.609 370.788 733.618 370.785 733.627 370.782L731.728 365.091ZM732 365L733.9 370.691C733.909 370.688 733.918 370.685 733.928 370.682L732 365ZM765 370L763.018 364.337L765 370ZM745 410L749.736 406.316L745 410ZM782 423L785.932 427.532C787.714 425.985 788.425 423.538 787.748 421.278C787.07 419.018 785.132 417.364 782.793 417.053L782 423ZM715 449L711.607 453.948L715 449ZM674 416L674.553 410.026L674 416ZM507 425L505.8 430.879L507 425ZM418.544 416.09L417.562 422.009C417.592 422.014 417.621 422.019 417.65 422.023L418.544 416.09ZM418 416L416.916 421.901C416.95 421.908 416.984 421.913 417.018 421.919L418 416ZM379.296 445.522L375.23 441.11C373.627 442.587 372.951 444.818 373.465 446.936L379.296 445.522ZM380.068 448.707L385.903 447.309C385.902 447.304 385.9 447.299 385.899 447.293L380.068 448.707ZM381.032 452.731L386.869 451.342L386.867 451.332L381.032 452.731ZM392.365 516.739H398.365H392.365ZM367.044 650.214L372.906 651.493L372.907 651.492L367.044 650.214ZM366 655L360.468 657.324C361.482 659.736 363.942 661.214 366.548 660.975C369.154 660.736 371.304 658.836 371.862 656.279L366 655ZM328.117 564.825L333.648 562.501C332.713 560.274 330.532 558.825 328.117 558.825V564.825ZM287.146 564.825L281.352 566.385C282.057 569.004 284.433 570.825 287.146 570.825V564.825ZM275.621 448.931L281.296 450.879C282.056 448.666 281.46 446.213 279.769 444.595L275.621 448.931ZM247 390L249.748 384.666C247.622 383.571 245.049 383.843 243.199 385.358C241.348 386.873 240.575 389.342 241.229 391.642L247 390ZM298.421 400.286L298.931 406.264C301.119 406.078 303.03 404.711 303.914 402.701C304.798 400.692 304.513 398.36 303.172 396.621L298.421 400.286ZM288.55 343.639L292.927 339.535C291.307 337.807 288.823 337.194 286.586 337.97C284.348 338.745 282.776 340.764 282.572 343.123L288.55 343.639ZM312.062 363.045L308.863 368.121C310.385 369.081 312.259 369.306 313.966 368.735C315.673 368.164 317.033 366.857 317.671 365.174L312.062 363.045ZM375 285L379.821 288.571L375 285ZM380 231L380.907 225.069C378.644 224.723 376.382 225.695 375.074 227.574C373.767 229.453 373.643 231.913 374.755 233.914L380 231ZM480 260L475.623 264.104C477.232 265.82 479.697 266.438 481.926 265.683C484.155 264.927 485.736 262.939 485.97 260.597L480 260ZM545.616 280.617L551.256 278.57C550.301 275.937 547.651 274.316 544.871 274.663C542.092 275.011 539.923 277.235 539.646 280.022L545.616 280.617ZM545.57 281.078L551.537 281.705C551.538 281.694 551.539 281.683 551.541 281.673L545.57 281.078ZM545.331 283.35L551.297 283.992C551.297 283.987 551.298 283.982 551.298 283.977L545.331 283.35ZM545.205 284.512L539.241 283.856C538.969 286.332 540.255 288.719 542.472 289.853C544.69 290.988 547.378 290.634 549.227 288.964L545.205 284.512ZM545.713 280.885L551.396 278.96C551.382 278.919 551.368 278.879 551.353 278.838L545.713 280.885ZM466.482 220.86L469.243 222.859L476.279 213.138L473.518 211.14L466.482 220.86ZM469.239 222.856C491.527 239.019 508.608 252.203 520.55 262.434C526.526 267.553 531.13 271.861 534.43 275.379C537.857 279.032 539.444 281.386 539.956 282.616L551.032 277.998C549.64 274.66 546.768 270.992 543.182 267.169C539.468 263.209 534.504 258.587 528.358 253.321C516.055 242.782 498.675 229.38 476.284 213.141L469.239 222.856ZM539.91 282.501L540.031 282.811L551.201 278.423L551.079 278.113L539.91 282.501ZM551.584 281.238L551.623 280.864L539.687 279.622L539.648 279.996L551.584 281.238ZM551.625 280.844C552.553 271.614 553.023 263.969 553 257.977L541 258.023C541.021 263.427 540.594 270.61 539.685 279.643L551.625 280.844ZM553 257.938L552.99 256.998L540.991 257.121L541 258.062L553 257.938ZM552.99 256.962C552.897 251.261 552.208 242.351 550.968 230.382L539.032 231.618C540.269 243.554 540.907 252.018 540.991 257.157L552.99 256.962ZM541.26 235.691L542.453 236.643L549.934 227.26L548.74 226.309L541.26 235.691ZM542.438 236.631C551.105 243.587 557.575 249.839 562.004 255.381C566.478 260.98 568.55 265.459 569.067 268.894L580.933 267.106C579.974 260.738 576.506 254.307 571.378 247.89C566.205 241.416 559.01 234.545 549.95 227.273L542.438 236.631ZM569.067 268.894C570.709 279.795 569.856 290.184 567.874 298.786C565.865 307.498 562.8 313.955 560.394 317.146L569.977 324.369C573.707 319.42 577.317 311.241 579.567 301.481C581.842 291.61 582.829 279.69 580.933 267.106L569.067 268.894ZM560.419 317.113L560.234 317.355L569.766 324.645L569.952 324.402L560.419 317.113ZM560.26 317.321C560.188 317.414 560.083 317.554 559.969 317.722C559.902 317.82 559.63 318.22 559.393 318.772C559.301 318.988 558.982 319.739 558.916 320.764C558.85 321.787 559.031 324.698 561.911 326.358C564.104 327.621 566.168 327.036 566.491 326.949C567.129 326.775 567.594 326.533 567.776 326.435C568.422 326.088 568.903 325.665 568.938 325.636C569.111 325.49 569.276 325.34 569.416 325.209C569.965 324.694 570.734 323.904 571.635 322.915C573.465 320.906 576.069 317.82 578.877 313.927C584.435 306.221 591.115 294.918 593.863 282.275L582.137 279.725C579.885 290.082 574.246 299.834 569.144 306.907C566.623 310.402 564.311 313.136 562.764 314.835C561.975 315.7 561.441 316.237 561.21 316.453C561.155 316.504 561.157 316.5 561.204 316.461C561.226 316.442 561.292 316.386 561.391 316.313C561.447 316.27 561.71 316.072 562.091 315.867C562.259 315.777 562.712 315.54 563.342 315.369C563.655 315.284 565.713 314.699 567.901 315.96C570.777 317.617 570.956 320.523 570.891 321.539C570.825 322.556 570.509 323.297 570.422 323.501C570.196 324.028 569.944 324.392 569.908 324.445C569.825 324.568 569.761 324.652 569.74 324.679L560.26 317.321ZM593.863 282.275C597.321 266.367 597.494 252.507 593.692 241.103L582.308 244.897C585.173 253.493 585.345 264.966 582.137 279.725L593.863 282.275ZM586.157 248.71C616.611 258.54 630.586 271.51 633.087 286.019L644.913 283.981C641.197 262.432 621.172 247.402 589.843 237.29L586.157 248.71ZM633.087 286.019C636.243 304.323 636.294 321.921 633.292 338.849L645.108 340.945C648.369 322.555 648.288 303.554 644.913 283.981L633.087 286.019ZM633.296 338.826L633.098 339.917L644.906 342.059L645.104 340.968L633.296 338.826ZM644.879 342.195L645.02 341.511L633.265 339.096L633.125 339.781L644.879 342.195ZM645.015 341.534C647.23 330.962 651.259 323.733 656.615 319.124C661.923 314.554 669.186 312 679 312V300C667.034 300 656.764 303.163 648.787 310.028C640.857 316.853 635.847 326.776 633.27 339.073L645.015 341.534ZM679 312C699.287 312 720.697 320.287 743.335 337.751L750.665 328.249C726.636 309.713 702.713 300 679 300V312ZM744.581 327.509L743.125 328.151L747.963 339.132L749.419 338.491L744.581 327.509ZM743.116 328.154C727.797 334.932 716.897 340.672 711.189 345.365L718.811 354.635C723.09 351.116 732.553 345.95 747.972 339.128L743.116 328.154ZM711.189 345.365C704.956 350.491 700.132 358.19 696.404 367.837L707.596 372.163C710.902 363.611 714.745 357.978 718.811 354.635L711.189 345.365ZM702.643 375.965L705.572 375.65L704.287 363.719L701.357 364.035L702.643 375.965ZM705.59 375.648C718.464 374.222 727.965 372.643 733.6 370.791L729.855 359.391C725.538 360.809 717.173 362.292 704.269 363.721L705.59 375.648ZM733.627 370.782L733.9 370.691L730.1 359.309L729.828 359.4L733.627 370.782ZM733.928 370.682C740.066 368.599 747.181 369.43 753.068 371.14C755.942 371.975 758.309 372.957 759.824 373.704C760.61 374.091 761.032 374.348 761.146 374.426C761.295 374.527 760.936 374.313 760.504 373.832C760.45 373.771 759.428 372.718 759.126 370.948C758.933 369.814 759.017 368.203 760.025 366.673C760.971 365.239 762.254 364.604 763.018 364.337L766.982 375.663C767.778 375.385 769.084 374.734 770.043 373.279C771.065 371.729 771.154 370.093 770.955 368.929C770.643 367.101 769.575 365.973 769.438 365.82C768.843 365.156 768.179 364.696 767.893 364.502C767.136 363.988 766.167 363.451 765.127 362.939C762.991 361.887 759.97 360.649 756.415 359.616C749.446 357.593 739.543 356.105 730.072 359.318L733.928 370.682ZM763.018 364.337C751.152 368.49 743.262 377.638 739.347 386.918C737.386 391.566 736.34 396.428 736.359 400.963C736.379 405.429 737.446 410.06 740.264 413.684L749.736 406.316C749.054 405.44 748.371 403.696 748.359 400.912C748.348 398.197 748.989 394.934 750.403 391.582C753.238 384.862 758.848 378.51 766.982 375.663L763.018 364.337ZM740.264 413.684C743.649 418.036 749.199 421.105 755.761 423.411C762.465 425.766 770.994 427.586 781.207 428.947L782.793 417.053C773.006 415.748 765.369 414.067 759.739 412.089C753.968 410.062 751.018 407.964 749.736 406.316L740.264 413.684ZM778.068 418.468C762.837 431.684 750.147 440.032 739.923 444C729.746 447.949 723.02 447.224 718.393 444.052L711.607 453.948C720.772 460.234 732.108 459.904 744.264 455.187C756.374 450.488 770.288 441.107 785.932 427.532L778.068 418.468ZM718.393 444.052C708.939 437.568 704.395 430.7 698.922 424.063C696.239 420.807 693.219 417.504 689.274 414.925C685.228 412.281 680.491 410.575 674.553 410.026L673.447 421.974C677.576 422.357 680.413 423.469 682.709 424.97C685.106 426.537 687.2 428.707 689.663 431.696C694.486 437.545 700.374 446.245 711.607 453.948L718.393 444.052ZM674.553 410.026C666.652 409.294 660.967 411.657 656.528 415.807C654.478 417.722 652.801 419.915 651.346 421.992C650.614 423.037 649.896 424.114 649.211 425.142C648.512 426.19 647.839 427.199 647.136 428.205C644.352 432.19 641.373 435.72 636.908 438.354C632.47 440.973 626.052 443 616 443V455C627.725 455 636.353 452.615 643.007 448.689C649.635 444.778 653.795 439.628 656.974 435.077C657.762 433.948 658.506 432.832 659.195 431.799C659.896 430.747 660.536 429.789 661.174 428.877C662.46 427.043 663.577 425.643 664.722 424.573C666.672 422.75 668.978 421.561 673.447 421.974L674.553 410.026ZM616 443C598.043 443 580.559 439.049 562.711 434.02C545.115 429.061 526.73 422.905 508.2 419.121L505.8 430.879C523.765 434.547 541.078 440.391 559.457 445.57C577.584 450.678 596.353 455 616 455V443ZM508.2 419.121C488.132 415.023 468.09 413.132 451.964 412.08C443.9 411.555 436.769 411.237 431.131 410.963C425.325 410.682 421.441 410.459 419.438 410.157L417.65 422.023C420.403 422.438 425.031 422.682 430.551 422.949C436.238 423.225 443.245 423.537 451.184 424.055C467.065 425.09 486.496 426.937 505.8 430.879L508.2 419.121ZM419.526 410.171L418.982 410.081L417.018 421.919L417.562 422.009L419.526 410.171ZM419.084 410.099C414.88 409.327 410.72 411.247 407.713 413.004C404.378 414.952 400.792 417.729 397.228 420.765C390.18 426.768 382.054 434.823 375.23 441.11L383.361 449.935C390.733 443.143 398.155 435.738 405.009 429.9C408.396 427.016 411.349 424.778 413.766 423.365C416.512 421.761 417.316 421.975 416.916 421.901L419.084 410.099ZM373.465 446.936L374.237 450.121L385.899 447.293L385.127 444.108L373.465 446.936ZM374.233 450.106L375.197 454.129L386.867 451.332L385.903 447.309L374.233 450.106ZM375.195 454.119C382.778 485.987 386.365 506.639 386.365 516.739H398.365C398.365 504.997 394.396 482.976 386.869 451.342L375.195 454.119ZM386.365 516.739C386.365 521.795 384.398 535.161 380.14 557.61C375.934 579.778 369.617 610.212 361.182 648.937L372.907 651.492C381.351 612.727 387.694 582.17 391.929 559.846C396.111 537.804 398.365 523.177 398.365 516.739H386.365ZM361.182 648.936L360.138 653.721L371.862 656.279L372.906 651.493L361.182 648.936ZM371.532 652.676L333.648 562.501L322.585 567.149L360.468 657.324L371.532 652.676ZM328.117 558.825H287.146V570.825H328.117V558.825ZM292.94 563.265C285.471 535.52 280.836 512.244 278.959 493.371C277.071 474.385 278.033 460.384 281.296 450.879L269.946 446.983C265.858 458.892 265.065 474.913 267.018 494.559C268.983 514.317 273.787 538.281 281.352 566.385L292.94 563.265ZM279.769 444.595C270.134 435.378 260.943 417.071 252.771 388.358L241.229 391.642C249.508 420.731 259.397 441.713 271.474 453.266L279.769 444.595ZM244.252 395.334C261.526 404.234 279.794 407.895 298.931 406.264L297.912 394.307C281.058 395.744 265.045 392.548 249.748 384.666L244.252 395.334ZM303.172 396.621C295.745 386.993 292.293 370.051 294.528 344.155L282.572 343.123C280.269 369.808 283.396 390.631 293.671 403.95L303.172 396.621ZM284.174 347.743C291.537 355.595 299.77 362.391 308.863 368.121L315.261 357.969C307.034 352.785 299.592 346.643 292.927 339.535L284.174 347.743ZM317.671 365.174C324.371 347.516 335.743 333.696 347.617 321.613C353.61 315.514 359.49 310.088 365.114 304.632C370.616 299.295 375.813 293.983 379.821 288.571L370.179 281.429C366.797 285.993 362.215 290.726 356.759 296.019C351.425 301.194 345.168 306.983 339.058 313.202C326.723 325.755 314.016 340.982 306.452 360.917L317.671 365.174ZM379.821 288.571C386.986 278.9 391.268 268.879 392.224 258.553C393.184 248.188 390.747 237.99 385.245 228.086L374.755 233.914C379.253 242.01 380.983 249.812 380.276 257.447C379.565 265.121 376.348 273.1 370.179 281.429L379.821 288.571ZM379.093 236.931C407.311 241.247 429.521 245.783 445.829 250.513C453.983 252.877 460.538 255.255 465.576 257.619C470.687 260.017 473.869 262.233 475.623 264.104L484.377 255.896C481.131 252.433 476.396 249.441 470.674 246.756C464.879 244.036 457.684 241.456 449.171 238.987C432.145 234.05 409.356 229.42 380.907 225.069L379.093 236.931ZM485.97 260.597C487.448 245.816 483.708 230 475.367 213.317L464.633 218.683C472.292 234 475.218 247.517 474.03 259.403L485.97 260.597ZM539.646 280.022L539.6 280.483L551.541 281.673L551.586 281.212L539.646 280.022ZM539.603 280.451L539.364 282.723L551.298 283.977L551.537 281.705L539.603 280.451ZM539.366 282.709C539.325 283.088 539.283 283.471 539.241 283.856L551.169 285.167C551.212 284.773 551.255 284.381 551.297 283.992L539.366 282.709ZM549.227 288.964C552.637 285.884 552.326 281.706 551.396 278.96L540.03 282.81C540.117 283.064 539.969 282.788 540.055 282.172C540.101 281.842 540.211 281.449 540.424 281.044C540.638 280.637 540.908 280.307 541.183 280.059L549.227 288.964ZM551.353 278.838L551.256 278.57L539.976 282.664L540.073 282.931L551.353 278.838Z" fill="currentColor"/>
          </g>
        </g>
      </g>
      <g id="notion-avatar-accessories">        <!--?xml version="1.0" encoding="UTF-8"?-->
        <title>Accessories/ 0</title>
        <g id="Accessories/-0" stroke="none" stroke-width="1" fill="none" fill-rule="evenodd"/>
      </g>
      <g id="notion-avatar-details">        <!--?xml version="1.0" encoding="UTF-8"?-->
        <title>Details/ 0</title>
        <g id="Details/-0" stroke="none" stroke-width="1" fill="none" fill-rule="evenodd"/>
      </g>
      <g id="notion-avatar-beard">        <!--?xml version="1.0" encoding="UTF-8"?-->
        <title>Beard/ 0</title>
        <g id="Beard/-0" stroke="none" stroke-width="1" fill="none" fill-rule="evenodd"/>
      </g>
    </g>
  </symbol>
  <symbol id="eye-none" viewBox="0 0 15 15" fill="none">
    <path fill-rule="evenodd" clip-rule="evenodd" d="M13.3536 2.35355C13.5488 2.15829 13.5488 1.84171 13.3536 1.64645C13.1583 1.45118 12.8417 1.45118 12.6464 1.64645L10.6828 3.61012C9.70652 3.21671 8.63759 3 7.5 3C4.30786 3 1.65639 4.70638 0.0760002 7.23501C-0.0253338 7.39715 -0.0253334 7.60288 0.0760014 7.76501C0.902945 9.08812 2.02314 10.1861 3.36061 10.9323L1.64645 12.6464C1.45118 12.8417 1.45118 13.1583 1.64645 13.3536C1.84171 13.5488 2.15829 13.5488 2.35355 13.3536L4.31723 11.3899C5.29348 11.7833 6.36241 12 7.5 12C10.6921 12 13.3436 10.2936 14.924 7.76501C15.0253 7.60288 15.0253 7.39715 14.924 7.23501C14.0971 5.9119 12.9769 4.81391 11.6394 4.06771L13.3536 2.35355ZM9.90428 4.38861C9.15332 4.1361 8.34759 4 7.5 4C4.80285 4 2.52952 5.37816 1.09622 7.50001C1.87284 8.6497 2.89609 9.58106 4.09974 10.1931L9.90428 4.38861ZM5.09572 10.6114L10.9003 4.80685C12.1039 5.41894 13.1272 6.35031 13.9038 7.50001C12.4705 9.62183 10.1971 11 7.5 11C6.65241 11 5.84668 10.8639 5.09572 10.6114Z" fill="currentColor" />
  </symbol>

  <symbol id="eye-open" viewBox="0 0 15 15" fill="none">
    <path fill-rule="evenodd" clip-rule="evenodd" d="M7.5 11C4.80285 11 2.52952 9.62184 1.09622 7.50001C2.52952 5.37816 4.80285 4 7.5 4C10.1971 4 12.4705 5.37816 13.9038 7.50001C12.4705 9.62183 10.1971 11 7.5 11ZM7.5 3C4.30786 3 1.65639 4.70638 0.0760002 7.23501C-0.0253338 7.39715 -0.0253334 7.60288 0.0760014 7.76501C1.65639 10.2936 4.30786 12 7.5 12C10.6921 12 13.3436 10.2936 14.924 7.76501C15.0253 7.60288 15.0253 7.39715 14.924 7.23501C13.3436 4.70638 10.6921 3 7.5 3ZM7.5 9.5C8.60457 9.5 9.5 8.60457 9.5 7.5C9.5 6.39543 8.60457 5.5 7.5 5.5C6.39543 5.5 5.5 6.39543 5.5 7.5C5.5 8.60457 6.39543 9.5 7.5 9.5Z" fill="currentColor" />
  </symbol>

  <symbol id="list" fill="currentColor" viewBox="0 0 256 256">
    <path d="M224,128a8,8,0,0,1-8,8H40a8,8,0,0,1,0-16H216A8,8,0,0,1,224,128ZM40,72H216a8,8,0,0,0,0-16H40a8,8,0,0,0,0,16ZM216,184H40a8,8,0,0,0,0,16H216a8,8,0,0,0,0-16Z"></path>
  </symbol>
  <symbol id="timer-sand-empty" viewBox="0 0 24 24">
    <path d="M6,2V8H6V8L10,12L6,16V16H6V22H18V16H18V16L14,12L18,8V8H18V2H6M16,16.5V20H8V16.5L12,12.5L16,16.5M12,11.5L8,7.5V4H16V7.5L12,11.5Z" />
  </symbol>
  <!-- Downloaded from @radix-ui/icons -->
  <!-- License https://github.com/radix-ui/icons/blob/master/LICENSE -->
  <!-- https://github.com/radix-ui/icons/blob/master/packages/radix-icons/icons/update.svg -->
  <symbol id="update" viewBox="0 0 15 15" fill="none">
    <path fill-rule="evenodd" clip-rule="evenodd" d="M1.90321 7.29677C1.90321 10.341 4.11041 12.4147 6.58893 12.8439C6.87255 12.893 7.06266 13.1627 7.01355 13.4464C6.96444 13.73 6.69471 13.9201 6.41109 13.871C3.49942 13.3668 0.86084 10.9127 0.86084 7.29677C0.860839 5.76009 1.55996 4.55245 2.37639 3.63377C2.96124 2.97568 3.63034 2.44135 4.16846 2.03202L2.53205 2.03202C2.25591 2.03202 2.03205 1.80816 2.03205 1.53202C2.03205 1.25588 2.25591 1.03202 2.53205 1.03202L5.53205 1.03202C5.80819 1.03202 6.03205 1.25588 6.03205 1.53202L6.03205 4.53202C6.03205 4.80816 5.80819 5.03202 5.53205 5.03202C5.25591 5.03202 5.03205 4.80816 5.03205 4.53202L5.03205 2.68645L5.03054 2.68759L5.03045 2.68766L5.03044 2.68767L5.03043 2.68767C4.45896 3.11868 3.76059 3.64538 3.15554 4.3262C2.44102 5.13021 1.90321 6.10154 1.90321 7.29677ZM13.0109 7.70321C13.0109 4.69115 10.8505 2.6296 8.40384 2.17029C8.12093 2.11718 7.93465 1.84479 7.98776 1.56188C8.04087 1.27898 8.31326 1.0927 8.59616 1.14581C11.4704 1.68541 14.0532 4.12605 14.0532 7.70321C14.0532 9.23988 13.3541 10.4475 12.5377 11.3662C11.9528 12.0243 11.2837 12.5586 10.7456 12.968L12.3821 12.968C12.6582 12.968 12.8821 13.1918 12.8821 13.468C12.8821 13.7441 12.6582 13.968 12.3821 13.968L9.38205 13.968C9.10591 13.968 8.88205 13.7441 8.88205 13.468L8.88205 10.468C8.88205 10.1918 9.10591 9.96796 9.38205 9.96796C9.65819 9.96796 9.88205 10.1918 9.88205 10.468L9.88205 12.3135L9.88362 12.3123C10.4551 11.8813 11.1535 11.3546 11.7585 10.6738C12.4731 9.86976 13.0109 8.89844 13.0109 7.70321Z" fill="currentColor" />
  </symbol>

  <symbol id="web_light_sq_na" viewBox="0 0 40 40" fill="none">
    <rect x="0.5" y="0.5" rx="3.5" fill="currentColor"/>
    <g clip-path="url(#clip0_710_6223)">
      <path d="M29.6 20.2273C29.6 19.5182 29.5364 18.8364 29.4182 18.1818H20V22.05H25.3818C25.15 23.3 24.4455 24.3591 23.3864 25.0682V27.5773H26.6182C28.5091 25.8364 29.6 23.2727 29.6 20.2273Z" fill="#4285F4"/>
      <path d="M20 30C22.7 30 24.9636 29.1045 26.6181 27.5773L23.3863 25.0682C22.4909 25.6682 21.3454 26.0227 20 26.0227C17.3954 26.0227 15.1909 24.2636 14.4045 21.9H11.0636V24.4909C12.7091 27.7591 16.0909 30 20 30Z" fill="#34A853"/>
      <path d="M14.4045 21.9C14.2045 21.3 14.0909 20.6591 14.0909 20C14.0909 19.3409 14.2045 18.7 14.4045 18.1V15.5091H11.0636C10.3864 16.8591 10 18.3864 10 20C10 21.6136 10.3864 23.1409 11.0636 24.4909L14.4045 21.9Z" fill="#FBBC04"/>
      <path d="M20 13.9773C21.4681 13.9773 22.7863 14.4818 23.8227 15.4727L26.6909 12.6045C24.9591 10.9909 22.6954 10 20 10C16.0909 10 12.7091 12.2409 11.0636 15.5091L14.4045 18.1C15.1909 15.7364 17.3954 13.9773 20 13.9773Z" fill="#E94235"/>

    </g>
    <rect x="0.5" y="0.5" rx="3.5" stroke="currentColor"/>
    <defs>
      <clipPath>
        <rect fill="currentColor" transform="translate(10 10)"/>
      </clipPath>
    </defs>
  </symbol>

</svg>
